<svg id="Filled_Outline" height="512" viewBox="0 0 128 128" width="512" xmlns="http://www.w3.org/2000/svg" data-name="Filled Outline"><path d="m4.553 33.016c0-2.85 3.455-3.766 5.572-4.433 13.339-4.2 24.266-9.273 32.23-14.986 2.266-1.625 5.561-.4 7.14 3.043 2.046 4.46 12.972 28.426 10.847 41.969-2.367 15.079-17.008 18.082-24.674 15.5-19.378-6.531-31.121-36.851-31.115-41.093z" fill="#ffbc5a"/><path d="m88.577 49.5c-6.6 4.125-13.825 3.722-19.056.417-14-8.844-4.7-31.917-3.562-42.292a3.249 3.249 0 0 1 3.041-2.961c10.271-.664 25.417 2.542 35.329 9.986a3.243 3.243 0 0 1 .808 4.021c-4.116 9.162-7.598 25.229-16.56 30.829z" fill="#70cff9"/><path d="m78.182 105.5c-8.944-3.107-14.076-13.692-8.409-31 1.127-3.443 3.762-11.967 4.5-15.5a3.826 3.826 0 0 1 4.656-3.158c7.284 1.937 20.365 5.835 29.465 7.413a3.734 3.734 0 0 1 3 4.479c-3.32 15.275-4.76 26.4-13.465 33.774-5.396 4.571-11.996 6.682-19.747 3.992z" fill="#ff5299"/><path d="m56.613 122.989c-9.734 4.929-19.4 1.564-26.03-10.322-3.251-5.834-5.208-13.33-7.564-20.335-.379-1.127-.813-3.658.168-4.394 4.5-3.375 15.145-9.362 34.345-10.105a2.294 2.294 0 0 1 2.392 1.783c.359 1.937 3.8 12.559 4.493 22.634.598 8.74-.75 17.167-7.804 20.739z" fill="#5852aa"/><path d="m27.124 53.206a1.584 1.584 0 0 1 .566-2.138c6.508-3.855 18-9.449 19.937-8.561 1.957.9 3.673 8.712 4.023 10.829a10.617 10.617 0 0 1 -1.552 6.7 11.481 11.481 0 0 1 -15.081 3.277c-3.146-1.65-6.094-6.832-7.893-10.107z" fill="#fff"/><path d="m83.856 38.061a1.941 1.941 0 0 0 3.249-1.4c.094-3.827-1.817-8.175-8.066-9.114a10.586 10.586 0 0 0 -9.228 3.233 1.935 1.935 0 0 0 1.545 3.287 21.783 21.783 0 0 1 6.654.319 14.847 14.847 0 0 1 5.846 3.675z" fill="#fff"/><path d="m49.98 95.4a5.2 5.2 0 0 1 -3.135-1.038 1.5 1.5 0 1 1 1.822-2.384 2.111 2.111 0 0 0 3.357-1.288 1.5 1.5 0 0 1 2.95.555 5.222 5.222 0 0 1 -3.193 3.828 5.058 5.058 0 0 1 -1.801.327z" fill="#2f2b47"/><path d="m36.309 99.319a5.2 5.2 0 0 1 -3.136-1.037 1.5 1.5 0 1 1 1.827-2.382 2.111 2.111 0 0 0 3.357-1.288 1.5 1.5 0 0 1 2.949.554 5.215 5.215 0 0 1 -3.192 3.828 5.041 5.041 0 0 1 -1.805.325z" fill="#2f2b47"/><path d="m39.25 104.841c1.785-2.832 5.388-4.258 8.726-4.517a7.858 7.858 0 0 1 7.966 4.863c.614 1.789.248 4.107-1.4 5.036-1.887 1.063-4.136-.473-5.952-.038-3.12.748-2.507 3.523-5.6 4.257a3.763 3.763 0 0 1 -4.3-1.985 8.792 8.792 0 0 1 .56-7.616z" fill="#fff"/><path d="m75.931 86.941a3.524 3.524 0 0 1 -.15-1.856 1.837 1.837 0 0 1 1.175-1.364c1.041-.314 2.019.562 2.833 1.282a17.266 17.266 0 0 0 7.943 3.81 6.756 6.756 0 0 0 4.2-.273c.784-.4 1.957-1.5 2.9-.971 1.06.594.912 2.988.576 3.9a4.223 4.223 0 0 1 -2.824 2.577c-.869.878-.352 2.683-1.107 3.661a1.681 1.681 0 0 1 -2.312.143 2.626 2.626 0 0 1 -.81-2.339c.284-2.415-2.852-2.647-4.635-3.022a17.042 17.042 0 0 1 -4.863-1.89 6.752 6.752 0 0 1 -2.926-3.658z" fill="#fff"/><path d="m108.8 40.284a13.928 13.928 0 0 0 3.6-11.752 1.1 1.1 0 0 0 -1.063-.92c-1.083-.023-2.17-.01-3.253-.024a1.1 1.1 0 0 0 -1.125 1.227 18.706 18.706 0 0 1 -1.184 9.655 1.11 1.11 0 0 0 .542 1.448c.431.194.862.415 1.293.591a1.1 1.1 0 0 0 1.19-.225z" fill="#ffeade"/><path d="m113.162 48.9c2.355 3.2 5.672 5.822 9.578 5.737a.832.832 0 0 0 .574-.26c.59-.612 1.5-1.476 2.261-2.392a.8.8 0 0 0 -.749-1.3 5.241 5.241 0 0 1 -2.326-.265 7.526 7.526 0 0 1 -3.48-2.744 14.507 14.507 0 0 1 -1.488-2.647.8.8 0 0 0 -1.381-.152 10.851 10.851 0 0 1 -2.788 2.9.787.787 0 0 0 -.201 1.123z" fill="#ffb95c"/><path d="m94.733 116.608c-.519-.525-1.011-1.005-1.5-1.483a1.32 1.32 0 0 1 .708-2.242 8.74 8.74 0 0 0 6.8-6.129 1.313 1.313 0 0 1 1.7-.82c.884.307 1.82.6 2.687.91a1.33 1.33 0 0 1 .843 1.57 12.358 12.358 0 0 1 -3.449 5.783 11.745 11.745 0 0 1 -6.711 2.808 1.319 1.319 0 0 1 -1.078-.397z" fill="#6acebb"/><path d="m14.536 14.867a.647.647 0 0 1 -.616.32 7.168 7.168 0 0 1 -4.764-2.614 7.141 7.141 0 0 1 -1.384-5.884 4.037 4.037 0 0 1 1.06-2.044 4.025 4.025 0 0 1 2.253-1.082.633.633 0 0 1 .74.742 6.877 6.877 0 0 0 .445 4.153 6.874 6.874 0 0 0 3.108 3.272.65.65 0 0 1 .34.79 14.166 14.166 0 0 1 -1.182 2.347z" fill="#ff8d98"/><path d="m5.706 84.787a.864.864 0 0 0 .617.187 8.618 8.618 0 0 0 6.477-4.014 8.622 8.622 0 0 0 .714-7.335.866.866 0 0 0 -.859-.535c-.983.031-2.01-.09-3.007-.107a.855.855 0 0 0 -.823 1.075 6.248 6.248 0 0 1 -.911 4.936 6.225 6.225 0 0 1 -3.6 2.446.858.858 0 0 0 -.469 1.4 18.041 18.041 0 0 0 1.861 1.947z" fill="#6acebb"/><path d="m12.438 102.624c-2.089-.117-3.729-2.046-4.165-4.093a11.692 11.692 0 0 1 .565-5.731.656.656 0 0 1 .589-.455c.823-.062 1.526-.246 2.3-.358a.638.638 0 0 1 .69.828 6.2 6.2 0 0 0 3.228 7.507.643.643 0 0 1 .038 1.144 6.385 6.385 0 0 1 -3.245 1.158z" fill="#4bd7e2"/><g fill="#2f2b47"><path d="m108.04 42.1a2.634 2.634 0 0 1 -1-.2c-.3-.12-.59-.259-.885-.4-.152-.072-.3-.145-.457-.213a2.6 2.6 0 0 1 -1.315-3.383 17.145 17.145 0 0 0 1.088-8.876 2.545 2.545 0 0 1 .61-2.044 2.643 2.643 0 0 1 2.018-.895c.463.006.928.007 1.393.008.624 0 1.249 0 1.872.016a2.58 2.58 0 0 1 2.517 2.2 15.514 15.514 0 0 1 -4.022 13.03 2.57 2.57 0 0 1 -1.819.757zm-.752-3.379.154.073c.165.078.33.157.5.231a12.487 12.487 0 0 0 3.023-9.915c-.818-.011-1.637-.006-2.455-.013a20.105 20.105 0 0 1 -1.222 9.619z"/><path d="m122.559 56.137c-3.827 0-7.585-2.247-10.605-6.349a2.287 2.287 0 0 1 .591-3.268 9.694 9.694 0 0 0 2.384-2.515 2.3 2.3 0 0 1 3.972.411 12.926 12.926 0 0 0 1.33 2.375 6.114 6.114 0 0 0 2.769 2.209 3.723 3.723 0 0 0 1.655.19 2.325 2.325 0 0 1 2.329 1.2 2.267 2.267 0 0 1 -.251 2.544c-.6.729-1.284 1.415-1.832 1.965-.183.185-.354.356-.5.511a2.313 2.313 0 0 1 -1.624.719zm-7.749-7.555c1.518 1.9 4.2 4.488 7.618 4.554.107-.11.223-.226.343-.348.2-.2.408-.409.618-.625a6.84 6.84 0 0 1 -1.389-.328 8.969 8.969 0 0 1 -4.2-3.275 13.918 13.918 0 0 1 -1.144-1.872 11.805 11.805 0 0 1 -1.846 1.894z"/><path d="m95.678 118.513a2.852 2.852 0 0 1 -2.012-.85c-.512-.518-1-.993-1.48-1.463a2.794 2.794 0 0 1 -.732-2.815 2.844 2.844 0 0 1 2.208-1.975 7.244 7.244 0 0 0 5.642-5.088 2.727 2.727 0 0 1 1.384-1.653 2.881 2.881 0 0 1 2.248-.152c.373.13.755.256 1.138.383.53.175 1.059.35 1.565.534a2.819 2.819 0 0 1 1.788 3.346 13.817 13.817 0 0 1 -3.867 6.5 13.189 13.189 0 0 1 -7.573 3.213 2.655 2.655 0 0 1 -.309.02zm-1.15-4.219c.4.389.8.785 1.22 1.208a10.141 10.141 0 0 0 5.739-2.39 10.976 10.976 0 0 0 2.99-4.908c-.439-.156-.892-.306-1.345-.456-.344-.113-.687-.227-1.024-.343a10.238 10.238 0 0 1 -7.58 6.889z"/><path d="m13.984 16.69a1.963 1.963 0 0 1 -.229-.012 8.554 8.554 0 0 1 -7.449-10.307 5.566 5.566 0 0 1 1.469-2.792 5.575 5.575 0 0 1 3.025-1.49 2.132 2.132 0 0 1 2.49 2.518 5.366 5.366 0 0 0 .345 3.239 5.409 5.409 0 0 0 2.424 2.55 2.151 2.151 0 0 1 1.062 2.643 15.568 15.568 0 0 1 -1.3 2.594 2.151 2.151 0 0 1 -1.837 1.057zm-3.795-11.23a2.1 2.1 0 0 0 -.3.251 2.545 2.545 0 0 0 -.649 1.3 5.674 5.674 0 0 0 1.09 4.629 5.7 5.7 0 0 0 3.208 1.969c.174-.3.339-.609.488-.926a8.244 8.244 0 0 1 -3.834-7.22z"/><path d="m6.251 86.477a2.371 2.371 0 0 1 -1.494-.528 13.9 13.9 0 0 1 -1.632-1.656l-.394-.443a2.324 2.324 0 0 1 -.368-2.584 2.5 2.5 0 0 1 1.637-1.295 4.73 4.73 0 0 0 2.682-1.833 4.736 4.736 0 0 0 .685-3.738 2.355 2.355 0 0 1 2.308-2.92c.428.007.86.032 1.293.058.58.034 1.126.066 1.642.05a2.356 2.356 0 0 1 2.316 1.522 9.95 9.95 0 0 1 -8.469 13.358c-.068.006-.138.009-.206.009zm-.625-3.883a11.527 11.527 0 0 0 .826.857 7.1 7.1 0 0 0 5.069-3.272 7.147 7.147 0 0 0 .733-5.584c-.621 0-1.235-.048-1.823-.081a7.771 7.771 0 0 1 -1.283 5.336 7.73 7.73 0 0 1 -3.522 2.744z"/><path d="m12.6 104.128q-.12 0-.243-.006c-2.94-.165-5.016-2.78-5.547-5.279a13.08 13.08 0 0 1 .59-6.475 2.141 2.141 0 0 1 1.913-1.521 12.478 12.478 0 0 0 1.292-.192c.3-.056.6-.111.909-.155a2.137 2.137 0 0 1 2.336 2.76 4.81 4.81 0 0 0 .226 3.489 4.871 4.871 0 0 0 2.224 2.223 2.142 2.142 0 0 1 .1 3.805l-.2.11a7.5 7.5 0 0 1 -3.6 1.241zm-2.484-10.351a9.59 9.59 0 0 0 -.376 4.442c.292 1.369 1.412 2.831 2.782 2.907a2.6 2.6 0 0 0 1.128-.286 7.652 7.652 0 0 1 -2.956-7.152c-.186.032-.379.063-.578.089z"/><path d="m41.051 75.981a18.938 18.938 0 0 1 -5.947-.893c-20.179-6.799-32.142-37.728-32.135-42.515.005-3.8 4.09-5.074 6.284-5.757l.336-.105c13.268-4.181 23.97-9.151 31.811-14.774a5.291 5.291 0 0 1 4.52-.8 7.727 7.727 0 0 1 4.857 4.437c3.962 8.636 12.963 30.1 10.965 42.826-1.267 8.079-5.756 12.335-9.3 14.482a22.139 22.139 0 0 1 -11.391 3.099zm3.421-62.035a2.231 2.231 0 0 0 -1.326.429c-8.1 5.808-19.084 10.921-32.655 15.2l-.346.109c-2.2.684-4.174 1.42-4.176 2.9-.006 3.959 11.371 33.36 30.093 39.668a18.714 18.714 0 0 0 14.824-1.928 16.969 16.969 0 0 0 7.89-12.382c1.87-11.921-6.88-32.721-10.728-41.11a4.836 4.836 0 0 0 -2.9-2.788 2.626 2.626 0 0 0 -.676-.098z"/><path d="m78.487 52.984a18.2 18.2 0 0 1 -9.767-2.8c-11.945-7.545-8.357-23.933-5.737-35.9.673-3.07 1.253-5.722 1.485-7.826a4.734 4.734 0 0 1 4.432-4.291c10.027-.652 25.688 2.292 36.328 10.284a4.706 4.706 0 0 1 1.276 5.836c-1.018 2.264-2.008 5-3.057 7.887-3.254 8.971-6.941 19.138-14.076 23.6a20.554 20.554 0 0 1 -10.884 3.21zm-6.817-47.903c-.891 0-1.751.026-2.575.08a1.756 1.756 0 0 0 -1.645 1.629c-.249 2.261-.846 4.985-1.536 8.139-2.43 11.1-5.758 26.3 4.407 32.719 5.152 3.255 11.842 3.093 17.461-.42 6.258-3.912 9.758-13.562 12.846-22.077 1.068-2.945 2.077-5.727 3.141-8.094a1.788 1.788 0 0 0 -.34-2.207c-8.78-6.594-22.054-9.769-31.759-9.769z"/><path d="m85.015 108.2a22.027 22.027 0 0 1 -7.257-1.287c-8.729-3.032-15.767-13.265-9.343-32.889 1.207-3.686 3.753-11.97 4.458-15.338a5.739 5.739 0 0 1 2.551-3.724 5.01 5.01 0 0 1 3.958-.577c1.647.438 3.592.977 5.719 1.566 7.416 2.054 16.644 4.609 23.617 5.819a5.233 5.233 0 0 1 4.212 6.276c-.368 1.7-.714 3.339-1.048 4.933-2.673 12.725-4.783 22.776-12.912 29.666-4.364 3.703-9.036 5.555-13.955 5.555zm-6.273-4.121c6.543 2.273 12.695 1.02 18.288-3.722 7.344-6.225 9.262-15.356 11.915-27.994.336-1.6.683-3.252 1.053-4.954a2.229 2.229 0 0 0 -.33-1.735 2.2 2.2 0 0 0 -1.462-.948c-7.119-1.226-16.427-3.809-23.906-5.88-2.116-.586-4.05-1.122-5.69-1.558a2.018 2.018 0 0 0 -1.61.232 2.735 2.735 0 0 0 -1.191 1.78c-.771 3.687-3.442 12.3-4.542 15.658-5.748 17.559.092 26.556 7.475 29.121z"/><path d="m48.085 126.678c-7.291 0-13.965-4.585-18.813-13.281-2.565-4.605-4.35-10.222-6.077-15.655-.525-1.652-1.05-3.305-1.6-4.931-.061-.181-1.47-4.454.689-6.073 4.748-3.561 15.632-9.648 35.188-10.4a3.827 3.827 0 0 1 3.928 3.004c.069.369.3 1.24.6 2.343 1.093 4.047 3.366 12.469 3.913 20.462.793 11.585-2.028 18.84-8.622 22.18a20.331 20.331 0 0 1 -9.206 2.351zm-23.262-38.078a1.663 1.663 0 0 0 -.726 1.452 7.4 7.4 0 0 0 .344 1.8c.552 1.643 1.082 3.312 1.613 4.979 1.681 5.292 3.421 10.763 5.84 15.1 6.045 10.85 14.809 14.389 24.042 9.714 5.4-2.734 7.685-9.047 6.985-19.3-.527-7.7-2.749-15.931-3.817-19.887-.34-1.258-.565-2.089-.655-2.577a.806.806 0 0 0 -.858-.557c-17.779.696-27.954 5.887-32.768 9.276z"/><path d="m38.454 39.073a1.5 1.5 0 0 1 -1.445-1.1 5.058 5.058 0 0 1 9.091-4.087 1.5 1.5 0 0 1 -2.629 1.445 2.152 2.152 0 0 0 -2.285-.542 2.045 2.045 0 0 0 -1.286 2.387 1.5 1.5 0 0 1 -1.049 1.843 1.525 1.525 0 0 1 -.397.054z"/><path d="m22.954 46.476a1.5 1.5 0 0 1 -1.445-1.1 5.058 5.058 0 0 1 9.091-4.087 1.5 1.5 0 0 1 -2.629 1.445 2.152 2.152 0 0 0 -2.285-.542 2.045 2.045 0 0 0 -1.286 2.387 1.5 1.5 0 0 1 -1.049 1.843 1.525 1.525 0 0 1 -.397.054z"/><path d="m40.831 66.35a13.9 13.9 0 0 1 -6.512-1.7c-3.243-1.7-6.007-6.157-8.509-10.715a3.077 3.077 0 0 1 1.115-4.152c.176-.1 17.679-10.3 21.326-8.634 3.05 1.4 4.7 10.872 4.878 11.948a12.079 12.079 0 0 1 -1.764 7.749 13.058 13.058 0 0 1 -10.534 5.504zm6.147-22.438c-2.1 0-11.381 4.222-18.524 8.452a.093.093 0 0 0 -.016.126c1.313 2.39 4.386 7.985 7.276 9.5a10.025 10.025 0 0 0 13.116-2.748 9.094 9.094 0 0 0 1.34-5.656c-.619-3.734-2.161-8.818-3.133-9.673z"/><path d="m78.255 23.035a1.493 1.493 0 0 1 -.938-.331l-4.587-3.687a1.5 1.5 0 0 1 1.881-2.338l4.589 3.687a1.5 1.5 0 0 1 -.941 2.669z"/><path d="m86.379 25.691a1.5 1.5 0 0 1 -.343-2.96l5.62-1.329a1.5 1.5 0 1 1 .689 2.92l-5.62 1.329a1.519 1.519 0 0 1 -.346.04z"/><path d="m85.4 40.077a3.383 3.383 0 0 1 -2.309-.917 13.019 13.019 0 0 0 -5.191-3.317 20.112 20.112 0 0 0 -6.17-.28 3.411 3.411 0 0 1 -3.418-2.007 3.37 3.37 0 0 1 .7-3.843 12.022 12.022 0 0 1 10.5-3.649c7.055 1.061 9.452 6.19 9.342 10.635a3.473 3.473 0 0 1 -3.454 3.378zm-.268-3.117a.387.387 0 0 0 .447.077.437.437 0 0 0 .28-.412c.049-1.969-.514-6.651-6.788-7.594a9.012 9.012 0 0 0 -7.952 2.818.373.373 0 0 0 -.079.457.436.436 0 0 0 .449.266 22.747 22.747 0 0 1 7.138.36 15.8 15.8 0 0 1 6.5 4.028z"/><path d="m42.047 116.054a5.211 5.211 0 0 1 -4.7-2.923c-1.4-2.778-.762-6.881.63-9.09 1.845-2.928 5.539-4.876 9.879-5.212a9.364 9.364 0 0 1 9.5 5.871c.789 2.3.328 5.471-2.082 6.829a6.152 6.152 0 0 1 -4.485.291 5.033 5.033 0 0 0 -1.854-.176 2.991 2.991 0 0 0 -1.935 1.547 5.861 5.861 0 0 1 -3.662 2.71 5.6 5.6 0 0 1 -1.291.153zm6.528-14.254c-.161 0-.321.006-.482.019-2.625.2-5.993 1.313-7.574 3.821a7.326 7.326 0 0 0 -.489 6.141 2.255 2.255 0 0 0 2.616 1.2 2.941 2.941 0 0 0 1.907-1.526 5.914 5.914 0 0 1 3.687-2.729 7.227 7.227 0 0 1 3.151.153 3.633 3.633 0 0 0 2.415.036c.947-.534 1.11-2.1.716-3.241a6.345 6.345 0 0 0 -5.947-3.874z"/><path d="m90.288 99.408a3.285 3.285 0 0 1 -2.073-.728 4.121 4.121 0 0 1 -1.351-3.68c.064-.546-.593-.847-2.708-1.235-.263-.049-.516-.095-.747-.144a18.411 18.411 0 0 1 -5.336-2.077 8.3 8.3 0 0 1 -3.568-4.484 4.919 4.919 0 0 1 -.181-2.654 3.319 3.319 0 0 1 2.2-2.458c1.834-.552 3.281.728 4.24 1.576a15.7 15.7 0 0 0 7.245 3.478 5.265 5.265 0 0 0 3.247-.137c.144-.073.3-.18.476-.29.87-.558 2.327-1.49 3.829-.651 2.1 1.175 1.644 4.658 1.252 5.726a5.749 5.749 0 0 1 -3.234 3.306 7.42 7.42 0 0 0 -.112.8 4.786 4.786 0 0 1 -.8 2.535 2.912 2.912 0 0 1 -2 1.1 3.47 3.47 0 0 1 -.379.017zm-12.862-14.589a.085.085 0 0 0 -.033 0 .523.523 0 0 0 -.149.272 2.109 2.109 0 0 0 .12 1.057 5.263 5.263 0 0 0 2.273 2.832 15.594 15.594 0 0 0 4.391 1.7c.207.044.434.085.67.129 1.805.331 5.559 1.021 5.145 4.537a1.185 1.185 0 0 0 .27 1 .32.32 0 0 0 .243.044 8.771 8.771 0 0 0 .129-.962 4.319 4.319 0 0 1 1.031-2.779 1.492 1.492 0 0 1 .679-.4 2.729 2.729 0 0 0 1.805-1.631 4.22 4.22 0 0 0 .077-1.943 8.067 8.067 0 0 0 -.723.428 8.644 8.644 0 0 1 -.745.443 8.012 8.012 0 0 1 -5.149.409 18.83 18.83 0 0 1 -8.66-4.162c-.294-.26-1.1-.974-1.374-.974z"/><path d="m81.08 81.5a5.6 5.6 0 0 1 -1.142-.119 6.426 6.426 0 0 1 -1.35-12.055c2.206-1.15 5.912-1.045 8 .8a1.558 1.558 0 0 1 .337 2.094c-.485.672-1.376.472-2.048-.014a5.486 5.486 0 0 0 -4.9-.222 3.582 3.582 0 0 0 -1.982 3.708 3.451 3.451 0 0 0 2.558 2.75c.746.134 2.746-.1 2.594-1.8a.925.925 0 0 0 -.452-.691.446.446 0 0 0 -.21-.056 1.5 1.5 0 0 1 -2.741-1.144 2.434 2.434 0 0 1 1.541-1.647 3.472 3.472 0 0 1 3.082.356 4.024 4.024 0 0 1 1.733 2.685 4.149 4.149 0 0 1 -.65 3.08 5.4 5.4 0 0 1 -4.37 2.275z"/><path d="m94.293 72.6a5.611 5.611 0 0 1 1.067-.424 6.426 6.426 0 0 1 6.793 10.05c-1.42 2.043-4.751 3.67-7.456 3a1.558 1.558 0 0 1 -1.271-1.7c.117-.82 1-1.057 1.82-.939a5.488 5.488 0 0 0 4.444-2.078 3.579 3.579 0 0 0 .033-4.2 3.451 3.451 0 0 0 -3.542-1.249c-.723.228-2.385 1.364-1.462 2.8a.926.926 0 0 0 .72.4.464.464 0 0 0 .212-.048 1.5 1.5 0 0 1 2.959-.26 2.433 2.433 0 0 1 -.6 2.175 3.474 3.474 0 0 1 -2.9 1.115 4.02 4.02 0 0 1 -2.783-1.567 4.147 4.147 0 0 1 -.855-3.03 5.4 5.4 0 0 1 2.821-4.045z"/></g></svg>